<svg width="60" height="60" viewBox="0 0 60 60" fill="none" xmlns="http://www.w3.org/2000/svg">
<g id="Logo">
<path id="Vector" d="M59.9573 33.6399C59.1965 39.2376 57.1613 44.2077 53.7135 48.6179C51.3013 51.7033 48.3834 54.2084 44.9445 56.1189C39.4893 59.1495 33.6118 60.4361 27.3811 59.8698C23.6849 59.5339 20.1841 58.4296 16.79 56.8869C13.7348 55.4983 11.0268 53.628 8.71174 51.3378C6.12677 48.7805 4.06671 45.7944 2.62823 42.3899C1.15498 38.903 0.267956 35.3532 0.0473077 31.5826C-0.237535 26.7151 0.779479 22.1251 2.67794 17.6821C4.12602 14.2931 6.18187 11.2343 8.81636 8.68223C10.7807 6.77929 13.1289 5.21155 15.4658 3.73883C18.1876 2.02351 21.2751 1.00605 24.45 0.491296C27.1314 0.0565561 29.8348 -0.150916 32.6152 0.12461C36.8186 0.541158 40.7763 1.56727 44.3754 3.68222C46.457 4.9054 48.3995 6.38736 50.2811 7.90097C53.0965 10.1658 55.1288 13.0799 56.7062 16.2656C58.4452 19.7774 59.7737 23.4449 59.9562 27.3974C60.0505 29.4391 59.9642 31.4889 59.9573 33.6399ZM6.63879 41.4138C6.71739 41.5269 6.796 41.6401 6.89614 41.912C8.18777 43.7739 9.3388 45.7506 10.7993 47.4745C14.2076 51.4976 18.6707 54.0683 23.7897 55.257C33.6282 57.5415 42.1066 54.9274 49.0427 47.7063C52.9474 43.6412 55.1352 38.7513 55.8951 33.0379C56.5089 27.341 55.4709 21.9864 52.4494 16.8757C52.2118 16.4392 52.0167 15.9736 51.7302 15.5706C48.0901 10.4518 43.3768 6.75279 37.0435 4.92389C36.7044 4.87724 36.3653 4.8306 35.9669 4.65151C35.8263 4.62704 35.6856 4.60258 35.3903 4.47786C34.2774 4.31259 33.1699 4.07811 32.0507 3.99433C27.7623 3.67331 23.6328 4.28998 19.5695 6.17585C17.9931 7.07345 16.4167 7.97104 14.7121 8.91606C14.5727 9.02836 14.4333 9.14066 14.2971 9.26118C14.2971 9.26118 14.2892 9.25295 14.1498 9.33335C11.7778 11.3801 9.41926 13.4382 7.92184 16.4233C6.11104 19.1816 4.9542 22.1975 4.41751 25.4225C3.65501 30.0044 3.87985 34.5183 5.65356 38.9248C5.65356 38.9248 5.68564 38.9544 5.68471 39.1206C5.75869 39.263 5.83267 39.4054 5.90994 39.6916C6.00744 39.9089 6.10495 40.1262 6.19742 40.4891C6.25643 40.5623 6.31543 40.6355 6.36122 40.7688C6.36122 40.7688 6.4132 40.8032 6.41113 40.9426C6.48736 41.055 6.56358 41.1673 6.65116 41.2706C6.65116 41.2706 6.63653 41.2716 6.63879 41.4138Z" fill="#FBFBFC"/>
<path id="Vector_2" d="M5.68562 38.9544C5.68562 38.9544 5.65353 38.9248 5.67096 38.7889C5.69478 38.1991 5.65759 37.7398 5.71533 37.2924C5.93181 35.6149 6.1793 33.9414 6.49056 32.3068C6.68239 32.6183 6.83388 32.8803 6.90982 33.1619C7.66442 35.9608 9.22276 38.2447 11.874 39.5081C14.0562 40.5479 16.4377 41.1805 18.7172 42.029C19.5956 42.356 19.9908 41.8295 20.2203 41.2149C20.4288 40.6567 20.422 40.0209 20.5728 39.366C20.5936 38.9637 20.5518 38.6149 20.51 38.1891C20.51 38.0096 20.5099 37.907 20.51 37.7201C20.4317 37.3843 20.3534 37.1329 20.2751 36.8046C20.2751 36.6251 20.275 36.5226 20.2729 36.3253C20.0375 35.063 19.8042 33.8954 19.6546 32.7425C19.8256 32.8284 19.9656 32.8841 19.9927 32.973C20.798 35.6116 21.668 38.2342 22.3688 40.8997C23.2349 44.194 23.7881 47.5887 25.8125 50.4688C26.5407 51.5048 27.4066 52.447 28.1434 53.4776C29.2156 54.9772 31.0063 55.1015 32.1966 53.6406C32.9488 52.7173 33.7328 51.7655 34.2253 50.7026C35.2677 48.4526 36.2462 46.1595 37.0347 43.814C38.0581 40.7696 38.8711 37.6568 39.8517 34.5625C40.1904 34.4051 40.4521 34.2587 40.7117 34.205C40.3195 36.3956 39.8289 38.4818 39.5737 40.5954C39.3977 42.0531 40.2676 42.5606 41.6946 42.157C44.9755 41.2292 47.7331 39.351 50.5752 37.5994C52.4688 36.4324 53.7309 34.9138 54.1953 32.7282C54.7881 32.8858 55.2896 33.0433 55.791 33.2007C55.1352 38.7512 52.9474 43.6411 49.0427 47.7063C42.1066 54.9273 33.6281 57.5415 23.7897 55.2569C18.6706 54.0683 14.2076 51.4976 10.7992 47.4745C9.33878 45.7506 8.18774 43.7738 6.8846 41.7604C6.79423 41.4963 6.71537 41.3839 6.63651 41.2715C6.63651 41.2715 6.65113 41.2705 6.64519 41.2046C6.56388 41.0268 6.48853 40.915 6.41318 40.8031C6.41318 40.8031 6.36119 40.7688 6.36397 40.6681C6.31197 40.4927 6.2572 40.4181 6.20242 40.3434C6.10492 40.1261 6.00742 39.9089 5.91462 39.5344C5.84142 39.2363 5.76352 39.0954 5.68562 38.9544Z" fill="#141D40"/>
<path id="Vector_3" d="M8.0553 16.3318C9.41946 13.4383 11.778 11.3801 14.242 9.38354C13.7281 10.3936 13.0884 11.3347 12.5237 12.3173C11.4052 14.2635 10.3281 16.2327 9.19844 18.27C8.29008 20.5512 8.16158 22.8142 8.23435 25.1754C8.32542 28.1305 12.0414 31.4985 14.3387 32.0897C14.6641 32.1734 15.3608 31.914 15.4396 31.6729C15.6575 31.0054 15.8017 30.2367 15.6843 29.5564C15.347 27.6021 14.7687 25.6859 14.4741 23.7273C14.2584 22.293 13.4719 20.85 14.3197 19.4208C14.5722 19.8877 14.7662 20.292 14.8831 20.7482C14.7767 21.1275 14.643 21.4864 14.7339 21.7778C15.7784 25.1262 16.857 28.4644 17.9264 31.9068C18.0041 33.1897 18.1473 34.3715 18.1411 35.5526C18.135 36.7386 17.3517 37.2939 16.193 36.9433C15.2692 36.6636 14.3699 36.2761 13.5021 35.8528C9.64893 33.9731 7.18711 31.1018 6.88452 26.6211C7.10629 24.2798 7.31064 22.0446 7.55661 19.8139C7.68505 18.6492 7.88671 17.4922 8.0553 16.3318Z" fill="#1E284D"/>
<path id="Vector_4" d="M19.7359 6.15404C23.6328 4.29004 27.7623 3.67337 32.0507 3.99439C33.1699 4.07817 34.2774 4.31265 35.4758 4.59662C35.7163 4.73822 35.8713 4.76111 36.0263 4.78401C36.3653 4.83066 36.7044 4.8773 37.1242 5.05384C38.0462 5.82122 38.8881 6.4579 39.7286 7.09637C41.1539 8.17905 42.5782 9.26286 43.9416 10.394C43.8425 10.6408 43.8047 10.8398 43.6854 11.0304C43.5307 10.997 43.4428 10.9897 43.3865 10.9444C38.8735 7.31869 33.7505 5.46599 27.8866 5.97917C24.1529 6.30593 20.912 7.94206 17.9005 10.0374C16.7057 10.8688 15.5672 11.7783 14.3224 12.6607C13.9041 12.8175 13.5664 12.966 13.2373 13.0342C14.0009 12.0928 14.6892 11.1621 15.5263 10.3863C16.8802 9.13159 18.339 7.98643 19.7283 6.76738C19.8332 6.67541 19.7381 6.36364 19.7359 6.15404Z" fill="#303B56"/>
<path id="Vector_5" d="M7.98835 16.3776C7.88639 17.4923 7.68473 18.6492 7.55629 19.8139C7.31032 22.0446 7.10597 24.2798 6.7968 26.6386C6.53764 27.6219 6.26266 28.4749 6.22187 29.3386C6.17601 30.3095 6.34151 31.2901 6.41507 32.2665C6.1792 33.9415 5.93171 35.6151 5.71523 37.2925C5.65749 37.7399 5.69468 38.1992 5.6757 38.7679C3.87972 34.5183 3.65489 30.0044 4.41738 25.4226C4.95408 22.1975 6.11092 19.1816 7.98835 16.3776Z" fill="#1B2441"/>
<path id="Vector_6" d="M44.003 10.3462C42.5783 9.26286 41.1539 8.17905 39.7287 7.09637C38.8882 6.4579 38.0463 5.82122 37.1963 5.10205C43.3768 6.75285 48.0901 10.4518 51.7303 15.5707C52.0168 15.9736 52.2119 16.4392 52.418 17.0423C52.489 18.3054 52.5915 19.402 52.6157 20.4984C52.4331 20.4982 52.3288 20.4981 52.2144 20.4111C52.0557 19.8534 51.9974 19.3271 51.74 18.9232C51.1715 18.0315 50.5028 17.2015 49.7958 16.3345C47.8121 14.3306 45.9076 12.3384 44.003 10.3462Z" fill="#28324B"/>
<path id="Vector_7" d="M52.6939 20.4985C52.5914 19.402 52.489 18.3054 52.4224 17.125C55.4709 21.9865 56.5089 27.341 55.8431 33.1194C55.2896 33.0434 54.7882 32.8859 54.1954 32.6222C54.1037 31.8821 54.1878 31.233 54.0729 30.62C53.9977 30.2189 53.634 29.8701 53.3994 29.3965C53.8903 26.3068 53.3205 23.4005 52.6939 20.4985Z" fill="#1B2441"/>
<path id="Vector_8" d="M19.6526 6.16504C19.738 6.3637 19.8331 6.67548 19.7283 6.76745C18.3389 7.9865 16.8801 9.13166 15.5262 10.3864C14.6891 11.1622 14.0008 12.0929 13.2007 13.1039C12.1616 14.7459 11.1677 16.2381 10.0965 17.7412C9.75743 17.899 9.49554 18.0457 9.23364 18.1925C10.3278 16.2328 11.4049 14.2636 12.5234 12.3174C13.0881 11.3347 13.7278 10.3936 14.3114 9.34342C14.2891 9.25308 14.2971 9.2613 14.3782 9.29681C14.5864 9.1778 14.7133 9.02328 14.8403 8.86877C16.4167 7.97117 17.9931 7.07358 19.6526 6.16504Z" fill="#28324B"/>
<path id="Vector_9" d="M14.7762 8.89246C14.7134 9.02326 14.5864 9.17777 14.3767 9.29268C14.4333 9.14077 14.5727 9.02847 14.7762 8.89246Z" fill="#1E284D"/>
<path id="Vector_10" d="M35.9964 4.71776C35.8711 4.76109 35.7161 4.73819 35.553 4.64673C35.6855 4.60262 35.8261 4.62708 35.9964 4.71776Z" fill="#28324B"/>
<path id="Vector_11" d="M5.6853 39.0375C5.76367 39.0954 5.84157 39.2364 5.91312 39.4625C5.8328 39.4053 5.75882 39.2629 5.6853 39.0375Z" fill="#1B2441"/>
<path id="Vector_12" d="M6.41211 40.8729C6.4885 40.915 6.56385 41.0269 6.63948 41.2092C6.56353 41.1673 6.4873 41.055 6.41211 40.8729Z" fill="#1B2441"/>
<path id="Vector_13" d="M6.6377 41.3427C6.71543 41.384 6.79429 41.4964 6.8739 41.681C6.79604 41.6401 6.71743 41.5269 6.6377 41.3427Z" fill="#1B2441"/>
<path id="Vector_14" d="M6.19995 40.4161C6.25724 40.418 6.31201 40.4926 6.37062 40.6379C6.31545 40.6353 6.25644 40.5621 6.19995 40.4161Z" fill="#1B2441"/>
<path id="Vector_15" d="M6.49049 32.3069C6.34154 31.2901 6.17604 30.3096 6.22189 29.3386C6.26268 28.475 6.53766 27.6219 6.79668 26.7467C7.18681 31.1019 9.64864 33.9731 13.5018 35.8528C14.3696 36.2762 15.2689 36.6637 16.1927 36.9433C17.3514 37.294 18.1347 36.7386 18.1408 35.5526C18.147 34.3716 18.0038 33.1898 18.0083 31.9197C18.5828 32.9678 19.0605 34.1108 19.5748 35.2377C19.7636 35.6515 20.039 36.0271 20.2749 36.4201C20.275 36.5227 20.275 36.6253 20.2133 36.8563C20.271 37.258 20.3904 37.5313 20.5098 37.8046C20.5099 37.9072 20.5099 38.0098 20.4473 38.2428C20.4264 38.7219 20.4682 39.0707 20.51 39.4195C20.4219 40.0211 20.4287 40.6568 20.2202 41.215C19.9907 41.8297 19.5955 42.3561 18.7171 42.0291C16.4376 41.1806 14.0561 40.5481 11.8739 39.5082C9.22268 38.2448 7.66435 35.961 6.90975 33.1621C6.83381 32.8804 6.68232 32.6184 6.49049 32.3069Z" fill="#192247"/>
<path id="Vector_16" d="M39.7746 34.5735C38.8711 37.6568 38.0581 40.7696 37.0347 43.814C36.2462 46.1595 35.2677 48.4526 34.2252 50.7026C33.7327 51.7655 32.9488 52.7173 32.1965 53.6406C31.0063 55.1015 29.2156 54.9772 28.1434 53.4776C27.4065 52.447 26.5407 51.5048 25.8125 50.4688C23.7881 47.5887 23.2349 44.194 22.3687 40.8997C21.6679 38.2342 20.798 35.6116 19.9927 32.973C19.9655 32.8841 19.8256 32.8284 19.6544 32.6456C19.5107 32.1621 19.4751 31.7844 19.3867 31.4191C19.0764 30.1376 18.748 28.8603 18.5005 27.6231C19.5432 29.4052 20.5119 31.1458 21.4488 32.966C21.4533 33.4466 21.4308 33.8633 21.5365 34.2459C21.954 35.7576 22.429 37.2539 22.8512 38.7644C24.0069 42.8998 25.1357 47.038 27.7194 50.6135C29.1644 52.6133 31.6856 52.668 32.9042 50.554C35.3965 46.2305 37.0226 41.5601 38.2572 36.7591C38.3285 36.4821 37.8717 36.0741 37.6522 35.6466C37.5623 35.367 37.4807 35.1678 37.4073 34.8864C38.0934 33.4698 38.7523 32.1257 39.4548 30.8038C40.0649 29.6558 40.7243 28.5331 41.4331 27.4486C41.512 27.7108 41.5718 27.9369 41.5193 28.1342C40.9479 30.2833 40.3588 32.4278 39.7746 34.5735Z" fill="#131C3A"/>
<path id="Vector_17" d="M53.3994 29.4978C53.6338 29.87 53.9975 30.2189 54.0727 30.6199C54.1877 31.2329 54.1035 31.882 54.1039 32.622C53.7308 34.9139 52.4686 36.4324 50.575 37.5995C47.733 39.351 44.9754 41.2292 41.6945 42.1571C40.2675 42.5607 39.3975 42.0531 39.5735 40.5955C39.8288 38.4819 40.3193 36.3957 40.7465 34.1265C41.267 33.0608 41.008 31.7344 42.3578 31.4426C42.2015 33.014 41.9624 34.4839 41.9138 35.9599C41.8716 37.2401 42.787 37.8498 44.0248 37.4283C44.9342 37.1187 45.8373 36.7338 46.6602 36.2471C49.4915 34.572 52.3755 32.9232 53.3994 29.4978Z" fill="#192247"/>
<path id="Vector_18" d="M42.358 31.3437C41.0083 31.7345 41.2673 33.0608 40.7487 34.0338C40.4522 34.2588 40.1905 34.4052 39.8518 34.5626C40.359 32.4278 40.948 30.2833 41.5195 28.1343C41.5719 27.937 41.5122 27.7109 41.4498 27.3665C42.8045 24.5841 44.2141 21.9333 45.6304 19.384C46.1803 21.1578 45.7746 22.7882 45.3282 24.4346C44.9495 25.0527 44.6171 25.6425 44.3643 26.2634C43.6775 27.9498 43.0244 29.6494 42.358 31.3437Z" fill="#1B2441"/>
<path id="Vector_19" d="M18.4266 27.5814C18.7481 28.8603 19.0766 30.1375 19.3868 31.419C19.4752 31.7844 19.5109 32.162 19.5709 32.6309C19.8043 33.8954 20.0376 35.063 20.273 36.3253C20.0392 36.0269 19.7638 35.6513 19.5749 35.2375C19.0606 34.1106 18.5829 32.9676 18.0086 31.8181C16.8569 28.4642 15.7783 25.1261 14.7338 21.7776C14.6429 21.4863 14.7765 21.1274 14.9418 20.802C15.7428 22.0241 16.4429 23.2272 17.062 24.4693C17.567 25.4825 17.9754 26.5423 18.4266 27.5814Z" fill="#1B2441"/>
<path id="Vector_20" d="M20.5728 39.366C20.4683 39.0706 20.4265 38.7218 20.4473 38.3196C20.5518 38.6149 20.5937 38.9638 20.5728 39.366Z" fill="#1B2441"/>
<path id="Vector_21" d="M20.51 37.7202C20.3905 37.5313 20.2711 37.258 20.2134 36.9332C20.3534 37.1331 20.4317 37.3845 20.51 37.7202Z" fill="#1B2441"/>
<path id="Vector_22" d="M18.5006 27.6231C17.9754 26.5424 17.5671 25.4826 17.062 24.4694C16.4429 23.2273 15.7428 22.0242 15.019 20.7503C14.7661 20.292 14.5721 19.8876 14.3031 19.3576C14.0699 19.0315 13.9118 18.8313 13.7446 18.5446C13.4238 17.7713 13.0831 17.095 12.8199 16.3907C12.7516 16.208 12.9261 15.9378 13.0932 15.7439C14.539 15.7567 15.8806 15.7334 17.3186 15.7405C17.8175 15.7556 18.22 15.7402 18.6916 15.7797C19.4196 16.9288 20.0787 18.0229 20.7469 19.199C21.8416 21.3157 22.9272 23.3503 24.0219 25.4665C25.9911 29.2242 27.9512 32.9002 29.9627 36.6726C30.2822 36.0731 30.5473 35.6122 30.7785 35.1355C31.5928 33.4568 32.3583 31.7543 33.2117 30.0953C34.3509 27.8808 35.555 25.6985 36.7967 23.4554C38.0819 20.9823 39.3016 18.556 40.6107 16.0891C41.1066 15.9677 41.5107 15.8323 41.9198 15.816C43.3203 15.7601 44.7225 15.746 46.1886 15.744C46.3427 15.7528 46.4324 15.7336 46.6002 15.7412C46.7305 15.7502 46.7827 15.7325 46.919 15.7501C47.0485 15.9814 47.19 16.22 47.1229 16.3662C46.8114 17.0445 46.4421 17.6972 46.0249 18.3975C45.8455 18.7182 45.7345 19.0004 45.6236 19.2826C44.2141 21.9334 42.8045 24.5841 41.3785 27.317C40.7244 28.5331 40.065 29.6559 39.4549 30.8039C38.7525 32.1257 38.0936 33.4699 37.3394 34.9372C34.8551 39.5855 32.4472 44.1009 29.97 48.7463C29.2842 47.5095 28.6481 46.3782 28.0269 45.2392C26.3822 42.2232 24.7438 39.2039 23.0988 36.1018C22.5567 34.9739 22.0187 33.9302 21.4808 32.8864C20.5121 31.1458 19.5433 29.4053 18.5006 27.6231Z" fill="#FCFCFD"/>
<path id="Vector_23" d="M13.7536 18.6311C13.9118 18.8314 14.0699 19.0316 14.2447 19.2951C13.4718 20.8501 14.2583 22.2931 14.474 23.7274C14.7686 25.686 15.3469 27.6022 15.6842 29.5564C15.8016 30.2367 15.6574 31.0055 15.4395 31.6729C15.3607 31.914 14.664 32.1735 14.3386 32.0897C12.0413 31.4985 8.32533 28.1305 8.23425 25.1754C8.16148 22.8142 8.28998 20.5512 9.19834 18.2701C9.49571 18.0457 9.7576 17.8989 10.0951 17.8306C9.88093 19.0494 9.44088 20.1764 9.33382 21.3331C9.13629 23.4673 9.58899 25.4636 11.449 26.8609C11.8169 27.1372 12.5193 27.4617 12.765 27.3054C13.1357 27.0696 13.4308 26.4273 13.4231 25.9631C13.3976 24.4414 13.2187 22.9223 13.1033 21.4018C13.0282 20.4133 12.8256 19.3935 13.7536 18.6311Z" fill="#222D53"/>
<path id="Vector_24" d="M46.0933 18.359C46.4419 17.6971 46.8112 17.0444 47.1227 16.3661C47.1898 16.22 47.0483 15.9814 46.9146 15.6683C46.6476 15.0665 46.5676 14.5112 46.271 14.1107C45.4864 13.0509 44.6079 12.0581 43.7668 11.0386C43.8046 10.8397 43.8424 10.6407 43.9415 10.3939C45.9074 12.3383 47.812 14.3305 49.8052 16.419C50.8038 18.6757 51.5423 20.8223 51.5816 23.2525C51.6317 26.3551 49.9701 28.1604 47.5436 29.5894C46.4942 30.2074 45.8991 29.8893 45.9101 28.6642C45.9209 27.4512 46.0382 26.219 46.2904 25.0324C46.7697 22.7784 47.3296 20.5521 46.0933 18.359Z" fill="#273358"/>
<path id="Vector_25" d="M43.6855 11.0305C44.6081 12.0583 45.4865 13.0511 46.2712 14.1109C46.5678 14.5114 46.6478 15.0667 46.8307 15.6332C46.7827 15.7326 46.7305 15.7503 46.557 15.7292C46.3471 15.6856 46.2585 15.681 46.1119 15.6156C45.8827 15.4681 45.6697 15.4191 45.5468 15.2884C44.5074 14.1817 43.5656 12.9731 42.4412 11.9593C39.0744 8.92357 35.021 7.38801 30.4945 7.13256C26.1125 6.88527 22.2412 8.41351 18.7708 10.898C17.2198 12.0083 16.1034 13.5785 14.9871 15.423C15.9133 15.423 16.5666 15.423 17.2211 15.4709C17.2283 15.5826 17.2283 15.6464 17.2223 15.7102C15.8806 15.7335 14.539 15.7568 13.094 15.6631C13.1222 15.1657 13.2129 14.7652 13.3943 14.4093C13.7004 13.8088 14.0639 13.2365 14.4032 12.6523C15.5673 11.7784 16.7058 10.8689 17.9006 10.0375C20.9121 7.94216 24.153 6.30604 27.8867 5.97928C33.7506 5.4661 38.8736 7.3188 43.3866 10.9445C43.4429 10.9898 43.5308 10.9971 43.6855 11.0305Z" fill="#313D5F"/>
<path id="Vector_26" d="M14.3226 12.6605C14.064 13.2362 13.7005 13.8085 13.3944 14.4091C13.213 14.765 13.1223 15.1655 12.9899 15.6269C12.9262 15.9378 12.7517 16.2079 12.82 16.3906C13.0832 17.0949 13.4239 17.7712 13.7448 18.5445C12.8257 19.3933 13.0283 20.4131 13.1034 21.4017C13.2188 22.9221 13.3977 24.4412 13.4232 25.9629C13.4309 26.4271 13.1358 27.0694 12.7651 27.3053C12.5194 27.4616 11.817 27.1371 11.4491 26.8607C9.58908 25.4634 9.13639 23.4671 9.33391 21.333C9.44097 20.1762 9.88102 19.0492 10.1724 17.8194C11.1679 16.2379 12.1619 14.7457 13.1924 13.1839C13.5666 12.9658 13.9043 12.8174 14.3226 12.6605Z" fill="#273358"/>
<path id="Vector_27" d="M42.3578 31.4426C43.0242 29.6494 43.6772 27.9498 44.364 26.2634C44.6169 25.6425 44.9492 25.0527 45.3176 24.524C44.9315 26.6789 44.4013 28.7473 44.0617 30.8456C43.969 31.4184 44.2913 32.2463 44.7225 32.644C45.0109 32.9099 45.8461 32.6953 46.403 32.5609C46.8828 32.4451 47.3436 32.1813 47.7631 31.9091C49.6464 30.6873 51.5079 29.4569 52.2175 27.1476C52.9021 24.9199 52.7525 22.7148 52.2242 20.4979C52.3285 20.498 52.4329 20.4982 52.6155 20.4984C53.3203 23.4004 53.8901 26.3067 53.3993 29.3965C52.3755 32.9232 49.4914 34.5721 46.6601 36.2471C45.8373 36.7339 44.9341 37.1187 44.0247 37.4283C42.787 37.8498 41.8716 37.2401 41.9138 35.9599C41.9623 34.4839 42.2015 33.014 42.3578 31.4426Z" fill="#1E284D"/>
<path id="Vector_28" d="M52.2143 20.4111C52.7527 22.7148 52.9023 24.9199 52.2177 27.1476C51.508 29.4569 49.6466 30.6873 47.7633 31.9091C47.3437 32.1813 46.8829 32.4451 46.4031 32.5609C45.8463 32.6953 45.011 32.9099 44.7226 32.644C44.2914 32.2463 43.9692 31.4184 44.0619 30.8456C44.4014 28.7474 44.9317 26.6789 45.4004 24.5098C45.7745 22.7882 46.1802 21.1578 45.6303 19.384C45.7344 19.0004 45.8453 18.7182 46.0248 18.3975C47.3297 20.5522 46.7697 22.7784 46.2905 25.0325C46.0382 26.219 45.9209 27.4512 45.9101 28.6643C45.8991 29.8894 46.4943 30.2075 47.5436 29.5895C49.9701 28.1604 51.6317 26.3551 51.5816 23.2526C51.5424 20.8223 50.8039 18.6757 49.8844 16.4308C50.5027 17.2014 51.1714 18.0314 51.7399 18.9231C51.9973 19.327 52.0556 19.8534 52.2143 20.4111Z" fill="#222D53"/>
<path id="Vector_29" d="M23.1028 36.1859C24.7436 39.2039 26.382 42.2233 28.0267 45.2393C28.6479 46.3783 29.284 47.5095 29.9698 48.7464C32.447 44.101 34.8549 39.5856 37.3309 35.0194C37.4806 35.1679 37.5622 35.3671 37.65 35.7377C36.523 38.9999 35.4839 42.1285 34.2178 45.1658C33.5662 46.7289 32.6306 48.2178 31.5977 49.5745C30.8071 50.613 29.846 50.5116 28.8813 49.5865C28.4966 49.2176 28.0883 48.8046 27.8856 48.3311C26.2128 44.4234 24.5839 40.4975 22.9565 36.5712C22.9177 36.4778 23.0502 36.3159 23.1028 36.1859Z" fill="#10162C"/>
<path id="Vector_30" d="M23.0988 36.1018C23.0504 36.3159 22.918 36.4778 22.9567 36.5712C24.5842 40.4975 26.2131 44.4234 27.8859 48.3311C28.0885 48.8046 28.4968 49.2176 28.8816 49.5865C29.8463 50.5116 30.8074 50.613 31.598 49.5745C32.6308 48.2178 33.5664 46.7289 34.218 45.1658C35.4842 42.1285 36.5233 38.9998 37.6586 35.8181C37.8719 36.0742 38.3287 36.4822 38.2574 36.7592C37.0228 41.5602 35.3967 46.2306 32.9044 50.5542C31.6858 52.6681 29.1646 52.6134 27.7196 50.6137C25.1359 47.0381 24.0071 42.8999 22.8514 38.7646C22.4292 37.254 21.9542 35.7577 21.5367 34.246C21.431 33.8634 21.4535 33.4467 21.449 32.9661C22.0188 33.9302 22.5567 34.974 23.0988 36.1018Z" fill="#101834"/>
<path id="Vector_31" d="M17.2199 15.4229C16.5665 15.4229 15.9132 15.4229 14.9871 15.4229C16.1033 13.5784 17.2197 12.0082 18.7707 10.8979C22.2411 8.41339 26.1124 6.88515 30.4944 7.13244C35.0209 7.38789 39.0743 8.92345 42.4411 11.9592C43.5656 12.973 44.5073 14.1816 45.5468 15.2882C45.6696 15.419 45.8826 15.468 46.101 15.6263C46.1482 15.6977 46.124 15.7161 46.124 15.7161C44.7224 15.7461 43.3202 15.7602 41.9197 15.816C41.5107 15.8323 41.1065 15.9677 40.5188 16.0933C39.4346 16.483 38.3713 16.6388 37.6666 17.2167C36.6018 18.0899 35.4705 18.2219 34.2139 18.1988C33.8687 18.1925 33.5194 18.2595 33.1761 18.3164C29.9659 18.8489 26.7593 19.4647 23.5667 18.1868C23.3159 18.0864 22.7272 18.1807 22.6745 18.3215C22.3029 19.3141 21.4811 19.0967 20.7376 19.1171C20.0786 18.023 19.4196 16.9289 18.655 15.7095C18.1063 15.5305 17.6631 15.4767 17.2199 15.4229ZM24.4531 13.786C25.4138 13.8735 26.3786 13.9302 27.3344 14.0539C31.0512 14.5351 34.6974 14.3949 38.186 12.8873C38.5817 12.7163 39.1475 12.4301 39.2018 12.1234C39.2626 11.78 38.9204 11.2507 38.5992 10.9775C35.397 8.25349 31.6385 7.46536 27.5273 8.05428C25.3669 8.36376 23.394 9.15091 21.7739 10.6217C20.6573 11.6353 20.8312 12.4011 22.2143 12.9286C22.9007 13.1904 23.5902 13.4445 24.4531 13.786Z" fill="#303E69"/>
<path id="Vector_32" d="M20.7468 19.199C21.4812 19.0966 22.3029 19.314 22.6745 18.3214C22.7272 18.1807 23.3159 18.0863 23.5668 18.1867C26.7593 19.4646 29.9659 18.8489 33.1761 18.3164C33.5195 18.2594 33.8687 18.1924 34.2139 18.1987C35.4705 18.2219 36.6019 18.0898 37.6667 17.2166C38.3713 16.6387 39.4347 16.4829 40.4293 16.1339C39.3015 18.556 38.0818 20.9822 36.7008 23.4545C33.5432 24.3799 30.4765 24.6818 27.3573 24.6796C26.6378 24.6791 25.9182 25.0218 25.1986 25.2066C25.2199 25.266 25.2412 25.3254 25.2625 25.3848C24.846 25.3848 24.4294 25.3848 24.0128 25.3848C22.9272 23.3502 21.8416 21.3156 20.7468 19.199Z" fill="#2D3B65"/>
<path id="Vector_33" d="M24.0217 25.4666C24.4292 25.3849 24.8458 25.3849 25.2624 25.3849C25.241 25.3255 25.2197 25.2661 25.1984 25.2067C25.918 25.0219 26.6377 24.6791 27.3571 24.6796C30.4763 24.6818 33.543 24.3799 36.6351 23.5015C35.5548 25.6985 34.3507 27.8808 33.2115 30.0953C32.3581 31.7544 31.5926 33.4569 30.7783 35.1355C30.547 35.6122 30.282 36.0732 29.9625 36.6726C27.951 32.9002 25.9909 29.2242 24.0217 25.4666Z" fill="#2A3860"/>
<path id="Vector_34" d="M17.2209 15.4707C17.663 15.4766 18.1062 15.5304 18.5859 15.6544C18.2199 15.7401 17.8173 15.7555 17.3184 15.7405C17.2281 15.6462 17.2281 15.5824 17.2209 15.4707Z" fill="#273358"/>
<path id="Vector_35" d="M46.1885 15.7438C46.124 15.7159 46.1482 15.6975 46.159 15.6868C46.2584 15.6807 46.3471 15.6853 46.4789 15.7022C46.4324 15.7335 46.3427 15.7526 46.1885 15.7438Z" fill="#273358"/>
<path id="Vector_36" d="M24.3658 13.7441C23.5903 13.4446 22.9009 13.1905 22.2144 12.9287C20.8313 12.4012 20.6575 11.6354 21.7741 10.6218C23.3941 9.151 25.367 8.36385 27.5275 8.05436C31.6387 7.46545 35.3971 8.25358 38.5993 10.9776C38.9206 11.2508 39.2627 11.7801 39.2019 12.1235C39.1477 12.4301 38.5819 12.7164 38.1861 12.8874C34.6976 14.395 31.0514 14.5352 27.3346 14.054C26.3788 13.9302 25.414 13.8736 24.3658 13.7441Z" fill="#32416C"/>
</g>
</svg>
